<svg xmlns="http://www.w3.org/2000/svg" version="1.1" xmlns:xlink="http://www.w3.org/1999/xlink" xmlns:svgjs="http://svgjs.dev/svgjs" width="1000" height="623" viewBox="0 0 1000 623"><g transform="matrix(1,0,0,1,-0.6060606060606233,98.18221596532123)"><svg viewBox="0 0 396 247" data-background-color="#252525" preserveAspectRatio="xMidYMid meet" height="623" width="1000" xmlns="http://www.w3.org/2000/svg" xmlns:xlink="http://www.w3.org/1999/xlink"><g id="tight-bounds" transform="matrix(1,0,0,1,0.2400000000000091,-0.09999999999999432)"><svg viewBox="0 0 395.52 247.2" height="247.2" width="395.52"><g><svg></svg></g><g><svg viewBox="0 0 395.52 247.2" height="247.2" width="395.52"><g transform="matrix(1,0,0,1,75.54432,72.55160132549437)"><svg viewBox="0 0 244.43135999999998 102.09679734901123" height="102.09679734901123" width="244.43135999999998"><g><svg viewBox="0 0 244.43135999999998 102.09679734901123" height="102.09679734901123" width="244.43135999999998"><g><svg viewBox="0 0 244.43135999999998 102.09679734901123" height="102.09679734901123" width="244.43135999999998"><g><svg viewBox="0 0 244.43135999999998 102.09679734901123" height="102.09679734901123" width="244.43135999999998"><g id="textblocktransform"><svg viewBox="0 0 244.43135999999998 102.09679734901123" height="102.09679734901123" width="244.43135999999998" id="textblock"><g><svg viewBox="0 0 244.43135999999998 102.09679734901123" height="102.09679734901123" width="244.43135999999998"><g transform="matrix(1,0,0,1,0,0)"><svg width="244.43135999999998" viewBox="5.44 -38.16 91.36 38.16" height="102.09679734901123" data-palette-color="#ffffff"><path d="M5.44 0L5.44-38.16 13.18-38.16 27.05-24.24 40.92-38.16 48.66-38.16 48.66 0 40.92 0 40.92-27.44 27.05-14.09 13.18-27.44 13.18 0 5.44 0ZM59.52 0L59.52-38.16 79.64-38.16Q84.03-38.16 87.25-37.21 90.48-36.25 92.6-34.46 94.72-32.67 95.76-30.08 96.8-27.49 96.8-24.24L96.8-24.24Q96.8-21.19 95.77-18.6 94.75-16.02 92.64-14.12 90.52-12.23 87.3-11.17 84.08-10.11 79.69-10.11L79.69-10.11 67.26-10.13 67.26 0 59.52 0ZM67.26-16.82L79.83-16.82Q82.03-16.82 83.68-17.35 85.32-17.87 86.44-18.84 87.55-19.8 88.1-21.18 88.64-22.56 88.64-24.24L88.64-24.24Q88.64-27.64 86.44-29.53 84.23-31.42 79.83-31.42L79.83-31.42 67.26-31.42 67.26-16.82Z" opacity="1" transform="matrix(1,0,0,1,0,0)" fill="#ffffff" class="wordmark-text-0" data-fill-palette-color="primary" id="text-0"></path></svg></g></svg></g></svg></g></svg></g><g></g></svg></g></svg></g></svg></g><g><path d="M101.381 48.449A122.216 122.216 0 0 1 294.139 48.449L284.932 48.449A113.008 113.008 0 0 0 110.588 48.449L101.381 48.449M101.381 198.751A122.216 122.216 0 0 0 294.139 198.751L284.932 198.751A113.008 113.008 0 0 1 110.588 198.751L101.381 198.751" fill="#9d57d9" stroke="transparent" data-fill-palette-color="tertiary"></path></g></svg></g><defs></defs></svg><rect width="395.52" height="247.2" fill="none" stroke="none" visibility="hidden"></rect></g></svg></g></svg>